/* XPM */
static char * icewm_xpm[] = {
"32 16 4 1",
"  c None",
"# c #3f3f3f",
"R c #c0392b",
"G c #ffd700",
"                                ",
"                                ",
"            GGGGGG              ",
"         GGRRRRRRGG             ",
"       GGRRRRRRRRRGG            ",
"      GRRRRRRRRRRRRGG           ",
"     GRRRRRRRRRRRRRRG           ",
"    GGRRRRRRRRRRRRRRG           ",
"    GRRRRRRRRRRRRRRRG           ",
"     GRRRRRRRRRRRRRRG           ",
"      GRRRRRRRRRRRRGG           ",
"       GGRRRRRRRRRGG            ",
"         GGRRRRRRGG             ",
"            GGGGGG              ",
"                                ",
"                                "};
